<?xml version="1.0" encoding="UTF-8" standalone="no"?>
<!-- Created with Inkscape (http://www.inkscape.org/) -->

<svg
   xmlns:dc="http://purl.org/dc/elements/1.1/"
   xmlns:cc="http://creativecommons.org/ns#"
   xmlns:rdf="http://www.w3.org/1999/02/22-rdf-syntax-ns#"
   xmlns:svg="http://www.w3.org/2000/svg"
   xmlns="http://www.w3.org/2000/svg"
   version="1.1"
   width="399.97583"
   height="185.13663"
   id="svg2985"
   xml:space="preserve"><metadata
     id="metadata2991"><rdf:RDF><cc:Work
         rdf:about=""><dc:format>image/svg+xml</dc:format><dc:type
           rdf:resource="http://purl.org/dc/dcmitype/StillImage" /><dc:title></dc:title></cc:Work></rdf:RDF></metadata><defs
     id="defs2989" /><g
     transform="matrix(1.25,0,0,-1.25,-725.39843,339.32702)"
     id="g2993"><g
       transform="matrix(3.6911974,0,0,3.6911974,-1561.6139,-331.81846)"
       id="g4502"><path
         d="m 580.64226,163.01759 85.9032,0 0,-39.285 -85.9032,0 0,39.285 z"
         id="path3201"
         style="fill:#ffffff;fill-opacity:1;fill-rule:nonzero;stroke:none" /><path
         d="m 580.68353,123.71393 85.86028,0 0,39.30445 -85.86028,0 0,-39.30445 z m 85.86028,0 z m -85.86028,14.80606 85.6819,0"
         id="path3205"
         style="fill:none;stroke:#000000;stroke-width:0.83245492;stroke-linecap:butt;stroke-linejoin:miter;stroke-miterlimit:4;stroke-opacity:1;stroke-dasharray:none" /><path
         d="m 585.53106,143.98259 0,13.0815 9.2538,0 0,-2.3085 -6.5475,0 0,-2.997 5.7618,0 0,-2.268 -5.7618,0 0,-5.508 -2.7063,0"
         id="path3207"
         style="fill:#009adb;fill-opacity:1;fill-rule:nonzero;stroke:none" /><path
         d="m 596.35626,157.10459 0,-13.122 9.9522,0 0,2.349 -7.2459,0 0,3.3615 6.3729,0 0,2.3085 -6.3729,0 0,2.754 6.8967,0 0,2.349 -9.603,0"
         id="path3209"
         style="fill:#009adb;fill-opacity:1;fill-rule:nonzero;stroke:none" /><path
         d="m 615.30036,154.59359 c 0.5238,-0.2835 0.7857,-0.81 0.7857,-1.62 0,-0.729 -0.2619,-1.215 -0.7857,-1.458 -0.2619,-0.162 -0.7857,-0.2025 -1.3968,-0.2025 l -3.0555,0 0,3.5235 3.1428,0 c 0.6111,0 1.0476,-0.081 1.3095,-0.243 z m -7.1586,2.511 0,-13.122 2.7063,0 0,5.1435 2.7936,0 c 0.7857,0 1.3968,-0.162 1.6587,-0.4455 0.2619,-0.243 0.4365,-0.81 0.4365,-1.6605 l 0,-1.215 c 0,-0.3645 0.0873,-0.7695 0.1746,-1.134 0,-0.162 0.0873,-0.405 0.1746,-0.6885 l 2.9682,0 0,0.324 c -0.2619,0.162 -0.4365,0.405 -0.4365,0.729 -0.0873,0.243 -0.0873,0.648 -0.0873,1.2555 l 0,0.8505 c 0,0.9315 -0.1746,1.62 -0.4365,2.0655 -0.2619,0.4455 -0.6111,0.7695 -1.2222,1.053 0.6984,0.243 1.2222,0.648 1.4841,1.2555 0.3492,0.6075 0.5238,1.215 0.5238,1.8225 0,0.5265 -0.0873,0.972 -0.2619,1.4175 -0.1746,0.3645 -0.3492,0.729 -0.6984,1.0935 -0.3492,0.405 -0.6984,0.6885 -1.2222,0.891 -0.5238,0.2025 -1.2222,0.324 -2.0952,0.3645 l -6.4602,0"
         id="path3211"
         style="fill:#009adb;fill-opacity:1;fill-rule:nonzero;stroke:none" /><path
         d="m 628.13346,154.59359 c 0.5238,-0.2835 0.7857,-0.81 0.7857,-1.62 0,-0.729 -0.2619,-1.215 -0.7857,-1.458 -0.3492,-0.162 -0.7857,-0.2025 -1.3968,-0.2025 l -3.1428,0 0,3.5235 3.2301,0 c 0.5238,0 0.9603,-0.081 1.3095,-0.243 z m -7.2459,2.511 0,-13.122 2.7063,0 0,5.1435 2.7936,0 c 0.873,0 1.3968,-0.162 1.6587,-0.4455 0.3492,-0.243 0.5238,-0.81 0.5238,-1.6605 l 0,-1.215 c 0,-0.3645 0,-0.7695 0.0873,-1.134 0.0873,-0.162 0.0873,-0.405 0.1746,-0.6885 l 3.0555,0 0,0.324 c -0.2619,0.162 -0.4365,0.405 -0.5238,0.729 0,0.243 -0.0873,0.648 -0.0873,1.2555 l 0,0.8505 c 0,0.9315 -0.0873,1.62 -0.3492,2.0655 -0.2619,0.4455 -0.6984,0.7695 -1.3095,1.053 0.6984,0.243 1.2222,0.648 1.5714,1.2555 0.3492,0.6075 0.4365,1.215 0.4365,1.8225 0,0.5265 -0.0873,0.972 -0.1746,1.4175 -0.1746,0.3645 -0.4365,0.729 -0.6984,1.0935 -0.3492,0.405 -0.7857,0.6885 -1.3095,0.891 -0.4365,0.2025 -1.1349,0.324 -2.0952,0.3645 l -6.4602,0"
         id="path3213"
         style="fill:#009adb;fill-opacity:1;fill-rule:nonzero;stroke:none" /><path
         d="m 633.45876,157.10459 2.7063,0 0,-13.122 -2.7063,0 0,13.122 z"
         id="path3215"
         style="fill:#009adb;fill-opacity:1;fill-rule:nonzero;stroke:none" /><path
         d="m 640.87926,143.98259 0,9.315 5.3253,-9.315 2.7936,0 0,13.122 -2.619,0 0,-9.153 -5.238,9.153 -2.7936,0 0,-13.122 2.5317,0"
         id="path3217"
         style="fill:#009adb;fill-opacity:1;fill-rule:nonzero;stroke:none" /><path
         d="m 660.95826,156.17309 c -1.0476,0.8505 -2.3571,1.2555 -4.0158,1.2555 -1.9206,0 -3.492,-0.648 -4.7142,-1.9035 -1.1349,-1.296 -1.746,-2.997 -1.746,-5.1435 0,-2.0655 0.6111,-3.726 1.746,-4.941 1.1349,-1.215 2.5317,-1.8225 4.2777,-1.8225 1.0476,0 2.0079,0.243 2.7063,0.6885 0.4365,0.243 0.873,0.6885 1.3968,1.296 l 0.2619,-1.62 1.8333,0 0,7.047 -5.4999,0 0,-2.187 3.0555,0 c -0.0873,-0.891 -0.4365,-1.5795 -1.0476,-2.106 -0.6111,-0.5265 -1.3968,-0.81 -2.2698,-0.81 -0.9603,0 -1.746,0.3645 -2.5317,1.0125 -0.6984,0.6885 -1.1349,1.8225 -1.1349,3.4425 0,1.5795 0.3492,2.7945 1.0476,3.6045 0.6984,0.7695 1.5714,1.1745 2.619,1.1745 0.5238,0 1.0476,-0.081 1.4841,-0.2835 0.7857,-0.3645 1.3095,-0.972 1.5714,-1.863 l 2.619,0 c -0.0873,1.2555 -0.6984,2.3085 -1.6587,3.159"
         id="path3219"
         style="fill:#009adb;fill-opacity:1;fill-rule:nonzero;stroke:none" /><path
         d="m 590.68176,131.58959 c -0.1746,-0.1215 -0.4365,-0.2025 -0.7857,-0.2025 l -1.3968,0 0,1.8225 1.3968,0 c 0.2619,0 0.5238,-0.0405 0.6111,-0.1215 0.3492,-0.1215 0.4365,-0.405 0.4365,-0.7695 0,-0.3645 -0.0873,-0.6075 -0.2619,-0.729 z m -2.1825,-2.997 0,2.187 1.6587,0 c 0.5238,0 0.873,0.162 1.1349,0.486 0.2619,0.2835 0.3492,0.648 0.3492,1.053 0,0.486 -0.0873,0.8505 -0.3492,1.0935 -0.3492,0.2835 -0.6984,0.405 -1.1349,0.405 l -2.3571,0 0,-5.2245 0.6984,0"
         id="path3221"
         style="fill:#000000;fill-opacity:1;fill-rule:nonzero;stroke:none" /><path
         d="m 592.68966,128.59259 0,5.2245 0.6984,0 0,-2.1465 2.7063,0 0,2.1465 0.6984,0 0,-5.2245 -0.6984,0 0,2.43 -2.7063,0 0,-2.43 -0.6984,0"
         id="path3223"
         style="fill:#000000;fill-opacity:1;fill-rule:nonzero;stroke:none" /><path
         d="m 599.84826,133.04759 0.7857,-2.3085 -1.6587,0 0.873,2.3085 z m -1.5714,-4.455 0.5238,1.539 2.0952,0 0.5238,-1.539 0.7857,0 -1.9206,5.2245 -0.7857,0 -2.0079,-5.2245 0.7857,0"
         id="path3225"
         style="fill:#000000;fill-opacity:1;fill-rule:nonzero;stroke:none" /><path
         d="m 603.68946,133.20959 1.746,0 c 0.2619,0 0.4365,-0.0405 0.5238,-0.1215 0.3492,-0.1215 0.4365,-0.3645 0.4365,-0.729 0,-0.3645 -0.0873,-0.6075 -0.2619,-0.729 -0.1746,-0.162 -0.4365,-0.2025 -0.7857,-0.2025 l -1.6587,0 0,1.782 z m 0,-4.617 0,2.2275 1.5714,0 c 0.3492,0 0.5238,-0.0405 0.6984,-0.081 0.1746,-0.1215 0.3492,-0.3645 0.3492,-0.6885 l 0.0873,-0.891 c 0,-0.2025 0,-0.324 0,-0.405 0,-0.081 0,-0.1215 0.0873,-0.162 l 0.873,0 0,0.1215 c -0.1746,0.0405 -0.2619,0.162 -0.2619,0.324 0,0.081 0,0.243 -0.0873,0.4455 l 0,0.6885 c 0,0.324 -0.0873,0.5265 -0.1746,0.648 -0.0873,0.162 -0.2619,0.243 -0.4365,0.324 0.2619,0.1215 0.4365,0.2835 0.5238,0.486 0.1746,0.2025 0.1746,0.4455 0.1746,0.7695 0,0.6075 -0.1746,1.0125 -0.6984,1.2555 -0.2619,0.1215 -0.6111,0.162 -0.9603,0.162 l -2.4444,0 0,-5.2245 0.6984,0"
         id="path3227"
         style="fill:#000000;fill-opacity:1;fill-rule:nonzero;stroke:none" /><path
         d="m 608.22906,128.59259 0,5.2245 0.9603,0 1.5714,-4.4145 1.4841,4.4145 0.9603,0 0,-5.2245 -0.6111,0 0,3.078 c 0,0.1215 0,0.2835 0,0.5265 0,0.243 0,0.5265 0,0.81 l -1.4841,-4.4145 -0.7857,0 -1.4841,4.4145 0,-0.162 c 0,-0.1215 0,-0.324 0,-0.6075 0,-0.243 0,-0.4455 0,-0.567 l 0,-3.078 -0.6111,0"
         id="path3229"
         style="fill:#000000;fill-opacity:1;fill-rule:nonzero;stroke:none" /><path
         d="m 616.26066,133.04759 0.7857,-2.3085 -1.6587,0 0.873,2.3085 z m -1.6587,-4.455 0.6111,1.539 2.0952,0 0.5238,-1.539 0.7857,0 -1.9206,5.2245 -0.7857,0 -2.0079,-5.2245 0.6984,0"
         id="path3231"
         style="fill:#000000;fill-opacity:1;fill-rule:nonzero;stroke:none" /><path
         d="m 621.49866,133.97909 c 0.6984,0 1.1349,-0.2025 1.5714,-0.5265 0.3492,-0.3645 0.5238,-0.7695 0.6111,-1.215 l -0.6984,0 c -0.0873,0.3645 -0.2619,0.6075 -0.5238,0.81 -0.1746,0.2025 -0.5238,0.2835 -0.9603,0.2835 -0.5238,0 -0.9603,-0.162 -1.2222,-0.5265 -0.3492,-0.3645 -0.5238,-0.9315 -0.5238,-1.6605 0,-0.6075 0.1746,-1.134 0.4365,-1.4985 0.2619,-0.3645 0.6984,-0.567 1.3095,-0.567 0.5238,0 0.873,0.2025 1.1349,0.6075 0.1746,0.2025 0.2619,0.486 0.3492,0.81 l 0.6984,0 c 0,-0.5265 -0.2619,-1.0125 -0.6111,-1.377 -0.4365,-0.4455 -0.9603,-0.6885 -1.6587,-0.6885 -0.6111,0 -1.1349,0.2025 -1.5714,0.567 -0.5238,0.486 -0.7857,1.2555 -0.7857,2.268 0,0.7695 0.1746,1.377 0.6111,1.9035 0.4365,0.5265 1.0476,0.81 1.8333,0.81"
         id="path3233"
         style="fill:#000000;fill-opacity:1;fill-rule:nonzero;stroke:none" /><path
         d="m 628.56996,128.59259 0,0.6075 -3.2301,0 0,1.782 2.8809,0 0,0.6075 -2.8809,0 0,1.5795 3.1428,0 0,0.648 -3.8412,0 0,-5.2245 3.9285,0"
         id="path3235"
         style="fill:#000000;fill-opacity:1;fill-rule:nonzero;stroke:none" /><path
         d="m 629.61756,133.81709 0.6984,0 0,-3.24 c 0,-0.3645 0.0873,-0.6885 0.1746,-0.9315 0.2619,-0.405 0.6111,-0.567 1.1349,-0.567 0.6111,0 0.9603,0.2025 1.2222,0.6075 0.0873,0.2025 0.1746,0.5265 0.1746,0.891 l 0,3.24 0.6984,0 0,-2.9565 c 0,-0.6075 -0.0873,-1.134 -0.2619,-1.458 -0.3492,-0.648 -0.873,-0.972 -1.8333,-0.972 -0.873,0 -1.4841,0.324 -1.746,0.972 -0.1746,0.324 -0.2619,0.8505 -0.2619,1.458 l 0,2.9565"
         id="path3237"
         style="fill:#000000;fill-opacity:1;fill-rule:nonzero;stroke:none" /><path
         d="m 634.41906,133.81709 4.2777,0 0,-0.6075 -1.746,0 0,-4.617 -0.7857,0 0,4.617 -1.746,0 0,0.6075"
         id="path3239"
         style="fill:#000000;fill-opacity:1;fill-rule:nonzero;stroke:none" /><path
         d="m 639.56976,133.81709 0.6984,0 0,-5.2245 -0.6984,0 0,5.2245 z"
         id="path3241"
         style="fill:#000000;fill-opacity:1;fill-rule:nonzero;stroke:none" /><path
         d="m 641.83956,133.16909 c -0.3492,-0.5265 -0.6111,-1.134 -0.6111,-1.9035 0,-1.0125 0.2619,-1.782 0.873,-2.268 0.3492,-0.3645 0.873,-0.567 1.4841,-0.567 0.6984,0 1.3095,0.243 1.6587,0.6885 0.3492,0.3645 0.6111,0.8505 0.6111,1.377 l -0.6984,0 c 0,-0.324 -0.1746,-0.6075 -0.2619,-0.81 -0.2619,-0.405 -0.6984,-0.6075 -1.2222,-0.6075 -0.5238,0 -0.9603,0.2025 -1.3095,0.567 -0.2619,0.3645 -0.4365,0.891 -0.4365,1.4985 0,0.729 0.1746,1.296 0.5238,1.6605 0.3492,0.3645 0.6984,0.5265 1.2222,0.5265 0.4365,0 0.7857,-0.081 0.9603,-0.2835 0.2619,-0.2025 0.4365,-0.4455 0.5238,-0.81 l 0.6984,0 c -0.0873,0.4455 -0.2619,0.8505 -0.6111,1.215 -0.3492,0.324 -0.873,0.5265 -1.5714,0.5265 -0.7857,0 -1.3968,-0.2835 -1.8333,-0.81"
         id="path3243"
         style="fill:#000000;fill-opacity:1;fill-rule:nonzero;stroke:none" /><path
         d="m 648.73626,133.04759 0.7857,-2.3085 -1.6587,0 0.873,2.3085 z m -1.6587,-4.455 0.6111,1.539 2.0079,0 0.5238,-1.539 0.7857,0 -1.8333,5.2245 -0.873,0 -1.9206,-5.2245 0.6984,0"
         id="path3245"
         style="fill:#000000;fill-opacity:1;fill-rule:nonzero;stroke:none" /><path
         d="m 651.70446,128.59259 0,5.2245 0.7857,0 0,-4.617 2.619,0 0,-0.6075 -3.4047,0"
         id="path3247"
         style="fill:#000000;fill-opacity:1;fill-rule:nonzero;stroke:none" /><path
         d="m 656.24406,128.91659 c 0.3492,-0.324 0.7857,-0.486 1.4841,-0.486 0.5238,0 1.0476,0.1215 1.4841,0.3645 0.4365,0.243 0.6111,0.6885 0.6111,1.2555 0,0.4455 -0.1746,0.81 -0.5238,1.053 -0.1746,0.162 -0.4365,0.243 -0.7857,0.324 l -0.6984,0.2025 c -0.5238,0.081 -0.873,0.2025 -0.9603,0.2835 -0.2619,0.1215 -0.3492,0.2835 -0.3492,0.5265 0,0.243 0.0873,0.4455 0.2619,0.648 0.1746,0.162 0.5238,0.243 0.873,0.243 0.5238,0 0.9603,-0.1215 1.1349,-0.405 0.0873,-0.162 0.1746,-0.3645 0.2619,-0.648 l 0.6111,0 c 0,0.567 -0.1746,1.0125 -0.5238,1.2555 -0.4365,0.2835 -0.873,0.405 -1.3968,0.405 -0.6111,0 -1.0476,-0.162 -1.3968,-0.4455 -0.3492,-0.2835 -0.5238,-0.6885 -0.5238,-1.134 0,-0.4455 0.1746,-0.7695 0.5238,-1.0125 0.1746,-0.1215 0.5238,-0.243 0.9603,-0.324 l 0.6984,-0.162 c 0.4365,-0.081 0.6984,-0.2025 0.873,-0.324 0.1746,-0.1215 0.2619,-0.324 0.2619,-0.6075 0,-0.3645 -0.1746,-0.648 -0.6111,-0.7695 -0.2619,-0.081 -0.4365,-0.1215 -0.6984,-0.1215 -0.6111,0 -1.0476,0.162 -1.3095,0.5265 -0.0873,0.162 -0.1746,0.405 -0.1746,0.6885 l -0.6984,0 c 0,-0.5265 0.1746,-1.0125 0.6111,-1.3365"
         id="path3249"
         style="fill:#000000;fill-opacity:1;fill-rule:nonzero;stroke:none" /></g></g></svg>